<mxfile host="app.diagrams.net" modified="2023-12-18T08:15:44.168Z" agent="Mozilla/5.0 (Windows NT 10.0; Win64; x64) AppleWebKit/537.36 (KHTML, like Gecko) Chrome/120.0.0.0 Safari/537.36 Edg/120.0.0.0" etag="eT9HHd2pqWdGZb7-xl0-" version="22.1.11" type="github">
  <diagram id="f106602c-feb2-e66a-4537-3a34d633f6aa" name="Page-1">
    <mxGraphModel dx="1386" dy="1612" grid="1" gridSize="10" guides="1" tooltips="1" connect="1" arrows="1" fold="1" page="1" pageScale="1" pageWidth="1169" pageHeight="827" background="none" math="0" shadow="0">
      <root>
        <mxCell id="0" />
        <mxCell id="1" parent="0" />
        <mxCell id="ZoSP0oV0xj8Opxd9QwxB-719" value="&lt;font style=&quot;font-size: 14px;&quot;&gt;&lt;b&gt;Authorization &lt;br&gt;Endpoint&lt;/b&gt;&lt;/font&gt;" style="rounded=0;whiteSpace=wrap;html=1;" vertex="1" parent="1">
          <mxGeometry x="690" y="190" width="150" height="60" as="geometry" />
        </mxCell>
        <mxCell id="ZoSP0oV0xj8Opxd9QwxB-720" value="" style="verticalLabelPosition=bottom;html=1;verticalAlign=top;align=center;strokeColor=none;fillColor=#00BEF2;shape=mxgraph.azure.user;" vertex="1" parent="1">
          <mxGeometry x="70" y="70" width="47.5" height="50" as="geometry" />
        </mxCell>
        <mxCell id="ZoSP0oV0xj8Opxd9QwxB-721" value="" style="image;aspect=fixed;perimeter=ellipsePerimeter;html=1;align=center;shadow=0;dashed=0;spacingTop=3;image=img/lib/active_directory/windows_server.svg;" vertex="1" parent="1">
          <mxGeometry x="430" y="55" width="65.6" height="80" as="geometry" />
        </mxCell>
        <mxCell id="ZoSP0oV0xj8Opxd9QwxB-722" value="" style="image;aspect=fixed;perimeter=ellipsePerimeter;html=1;align=center;shadow=0;dashed=0;spacingTop=3;image=img/lib/active_directory/windows_server.svg;" vertex="1" parent="1">
          <mxGeometry x="960" y="55" width="65.6" height="80" as="geometry" />
        </mxCell>
        <mxCell id="ZoSP0oV0xj8Opxd9QwxB-723" value="&lt;font style=&quot;font-size: 14px;&quot;&gt;&lt;b&gt;Userinfo&lt;/b&gt;&lt;/font&gt;&lt;br&gt;&lt;b style=&quot;border-color: var(--border-color); font-size: 14px;&quot;&gt;Endpoint&lt;/b&gt;&amp;nbsp;" style="rounded=0;whiteSpace=wrap;html=1;" vertex="1" parent="1">
          <mxGeometry x="1040" y="190" width="120" height="60" as="geometry" />
        </mxCell>
        <mxCell id="ZoSP0oV0xj8Opxd9QwxB-728" value="" style="endArrow=none;html=1;rounded=0;" edge="1" parent="1">
          <mxGeometry width="50" height="50" relative="1" as="geometry">
            <mxPoint x="100" y="760" as="sourcePoint" />
            <mxPoint x="100" y="150" as="targetPoint" />
          </mxGeometry>
        </mxCell>
        <mxCell id="ZoSP0oV0xj8Opxd9QwxB-729" value="" style="endArrow=none;html=1;rounded=0;" edge="1" parent="1">
          <mxGeometry width="50" height="50" relative="1" as="geometry">
            <mxPoint x="769.5" y="780" as="sourcePoint" />
            <mxPoint x="770" y="260" as="targetPoint" />
          </mxGeometry>
        </mxCell>
        <mxCell id="ZoSP0oV0xj8Opxd9QwxB-730" value="" style="endArrow=none;html=1;rounded=0;" edge="1" parent="1">
          <mxGeometry width="50" height="50" relative="1" as="geometry">
            <mxPoint x="462.3" y="760" as="sourcePoint" />
            <mxPoint x="462.3" y="150" as="targetPoint" />
          </mxGeometry>
        </mxCell>
        <mxCell id="ZoSP0oV0xj8Opxd9QwxB-731" value="&lt;font style=&quot;font-size: 14px;&quot;&gt;&lt;b&gt;Token&lt;br&gt;Endpoint&lt;/b&gt;&lt;/font&gt;" style="rounded=0;whiteSpace=wrap;html=1;" vertex="1" parent="1">
          <mxGeometry x="870" y="190" width="150" height="60" as="geometry" />
        </mxCell>
        <mxCell id="ZoSP0oV0xj8Opxd9QwxB-732" value="" style="endArrow=none;html=1;rounded=0;" edge="1" parent="1">
          <mxGeometry width="50" height="50" relative="1" as="geometry">
            <mxPoint x="950" y="780" as="sourcePoint" />
            <mxPoint x="950.5" y="260" as="targetPoint" />
          </mxGeometry>
        </mxCell>
        <mxCell id="ZoSP0oV0xj8Opxd9QwxB-733" value="" style="endArrow=none;html=1;rounded=0;" edge="1" parent="1">
          <mxGeometry width="50" height="50" relative="1" as="geometry">
            <mxPoint x="1099.5" y="780" as="sourcePoint" />
            <mxPoint x="1100" y="260" as="targetPoint" />
          </mxGeometry>
        </mxCell>
        <mxCell id="ZoSP0oV0xj8Opxd9QwxB-734" value="" style="endArrow=classic;html=1;rounded=0;" edge="1" parent="1">
          <mxGeometry width="50" height="50" relative="1" as="geometry">
            <mxPoint x="110" y="200" as="sourcePoint" />
            <mxPoint x="460" y="200" as="targetPoint" />
          </mxGeometry>
        </mxCell>
        <mxCell id="ZoSP0oV0xj8Opxd9QwxB-735" value="&lt;b&gt;&lt;font style=&quot;font-size: 14px;&quot;&gt;End-User - Client&lt;/font&gt;&lt;/b&gt;" style="rounded=0;whiteSpace=wrap;html=1;strokeColor=none;" vertex="1" parent="1">
          <mxGeometry x="30" width="150" height="60" as="geometry" />
        </mxCell>
        <mxCell id="ZoSP0oV0xj8Opxd9QwxB-737" value="" style="endArrow=classic;html=1;rounded=0;" edge="1" parent="1">
          <mxGeometry width="50" height="50" relative="1" as="geometry">
            <mxPoint x="100" y="340" as="sourcePoint" />
            <mxPoint x="760" y="340" as="targetPoint" />
          </mxGeometry>
        </mxCell>
        <mxCell id="ZoSP0oV0xj8Opxd9QwxB-738" value="&lt;font style=&quot;font-size: 14px;&quot;&gt;&lt;b&gt;1 - Authentication request&lt;/b&gt;&lt;/font&gt;" style="rounded=0;whiteSpace=wrap;html=1;strokeColor=none;" vertex="1" parent="1">
          <mxGeometry x="150" y="280" width="230" height="50" as="geometry" />
        </mxCell>
        <mxCell id="ZoSP0oV0xj8Opxd9QwxB-741" value="" style="endArrow=classic;html=1;rounded=0;" edge="1" parent="1">
          <mxGeometry width="50" height="50" relative="1" as="geometry">
            <mxPoint x="462.5" y="270" as="sourcePoint" />
            <mxPoint x="112.5" y="270" as="targetPoint" />
          </mxGeometry>
        </mxCell>
        <mxCell id="ZoSP0oV0xj8Opxd9QwxB-742" value="&lt;b&gt;&lt;font style=&quot;font-size: 14px;&quot;&gt;Redirect to Wechat Service&lt;/font&gt;&lt;/b&gt;" style="rounded=0;whiteSpace=wrap;html=1;strokeColor=none;" vertex="1" parent="1">
          <mxGeometry x="185" y="210" width="205" height="50" as="geometry" />
        </mxCell>
        <mxCell id="ZoSP0oV0xj8Opxd9QwxB-747" value="" style="endArrow=classic;startArrow=classic;html=1;rounded=0;" edge="1" parent="1">
          <mxGeometry width="50" height="50" relative="1" as="geometry">
            <mxPoint x="110" y="430" as="sourcePoint" />
            <mxPoint x="760" y="430" as="targetPoint" />
          </mxGeometry>
        </mxCell>
        <mxCell id="ZoSP0oV0xj8Opxd9QwxB-749" value="&lt;b&gt;&lt;font style=&quot;font-size: 14px;&quot;&gt;2- User authentication&lt;/font&gt;&lt;/b&gt;" style="rounded=0;whiteSpace=wrap;html=1;strokeColor=none;" vertex="1" parent="1">
          <mxGeometry x="220" y="364" width="230" height="50" as="geometry" />
        </mxCell>
        <mxCell id="ZoSP0oV0xj8Opxd9QwxB-750" value="" style="endArrow=classic;html=1;rounded=0;" edge="1" parent="1">
          <mxGeometry width="50" height="50" relative="1" as="geometry">
            <mxPoint x="760" y="500" as="sourcePoint" />
            <mxPoint x="460" y="500" as="targetPoint" />
          </mxGeometry>
        </mxCell>
        <mxCell id="ZoSP0oV0xj8Opxd9QwxB-751" value="&lt;b&gt;&lt;font style=&quot;font-size: 14px;&quot;&gt;3- Return authorization code&lt;/font&gt;&lt;/b&gt;" style="rounded=0;whiteSpace=wrap;html=1;strokeColor=none;" vertex="1" parent="1">
          <mxGeometry x="532.5" y="440" width="205" height="50" as="geometry" />
        </mxCell>
        <mxCell id="ZoSP0oV0xj8Opxd9QwxB-752" value="" style="endArrow=classic;startArrow=classic;html=1;rounded=0;" edge="1" parent="1">
          <mxGeometry width="50" height="50" relative="1" as="geometry">
            <mxPoint x="470" y="616" as="sourcePoint" />
            <mxPoint x="950" y="616" as="targetPoint" />
          </mxGeometry>
        </mxCell>
        <mxCell id="ZoSP0oV0xj8Opxd9QwxB-753" value="&lt;b&gt;&lt;font style=&quot;font-size: 14px;&quot;&gt;4,5 - Request and retrieve token(s) using Authorization Code&lt;/font&gt;&lt;/b&gt;" style="rounded=0;whiteSpace=wrap;html=1;strokeColor=none;" vertex="1" parent="1">
          <mxGeometry x="520" y="550" width="470" height="50" as="geometry" />
        </mxCell>
        <mxCell id="ZoSP0oV0xj8Opxd9QwxB-754" value="" style="endArrow=classic;startArrow=classic;html=1;rounded=0;" edge="1" parent="1">
          <mxGeometry width="50" height="50" relative="1" as="geometry">
            <mxPoint x="470" y="716" as="sourcePoint" />
            <mxPoint x="1100" y="716" as="targetPoint" />
          </mxGeometry>
        </mxCell>
        <mxCell id="ZoSP0oV0xj8Opxd9QwxB-755" value="&lt;b&gt;&lt;font style=&quot;font-size: 14px;&quot;&gt;6 - Request and retrieve Userinfo using Access Token&lt;/font&gt;&lt;/b&gt;" style="rounded=0;whiteSpace=wrap;html=1;strokeColor=none;" vertex="1" parent="1">
          <mxGeometry x="520" y="650" width="470" height="50" as="geometry" />
        </mxCell>
        <mxCell id="ZoSP0oV0xj8Opxd9QwxB-756" value="&lt;span style=&quot;font-size: 14px;&quot;&gt;&lt;b&gt;Request Login&lt;/b&gt;&lt;/span&gt;" style="rounded=0;whiteSpace=wrap;html=1;strokeColor=none;" vertex="1" parent="1">
          <mxGeometry x="210" y="150" width="150" height="60" as="geometry" />
        </mxCell>
        <mxCell id="ZoSP0oV0xj8Opxd9QwxB-757" value="&lt;span style=&quot;font-size: 14px;&quot;&gt;&lt;b&gt;Request Login&lt;/b&gt;&lt;/span&gt;" style="rounded=0;whiteSpace=wrap;html=1;strokeColor=none;" vertex="1" parent="1">
          <mxGeometry x="220" y="160" width="150" height="60" as="geometry" />
        </mxCell>
        <mxCell id="ZoSP0oV0xj8Opxd9QwxB-758" value="&lt;span style=&quot;font-size: 14px;&quot;&gt;&lt;b&gt;Request Login&lt;/b&gt;&lt;/span&gt;" style="rounded=0;whiteSpace=wrap;html=1;strokeColor=none;" vertex="1" parent="1">
          <mxGeometry x="930" y="-10" width="150" height="60" as="geometry" />
        </mxCell>
        <mxCell id="ZoSP0oV0xj8Opxd9QwxB-759" value="&lt;font style=&quot;font-size: 14px;&quot;&gt;&lt;b&gt;Identity Provider (BASF Federaion Service)&lt;/b&gt;&lt;/font&gt;" style="rounded=0;whiteSpace=wrap;html=1;strokeColor=none;" vertex="1" parent="1">
          <mxGeometry x="760" width="330" height="60" as="geometry" />
        </mxCell>
        <mxCell id="ZoSP0oV0xj8Opxd9QwxB-762" value="&lt;b&gt;&lt;font style=&quot;font-size: 14px;&quot;&gt;Application - Relying Party&lt;/font&gt;&lt;/b&gt;" style="rounded=0;whiteSpace=wrap;html=1;strokeColor=none;" vertex="1" parent="1">
          <mxGeometry x="420" width="150" height="60" as="geometry" />
        </mxCell>
      </root>
    </mxGraphModel>
  </diagram>
</mxfile>
